<?xml version="1.0" encoding="UTF-8" standalone="no"?>
<svg
   xmlns:dc="http://purl.org/dc/elements/1.1/"
   xmlns:cc="http://creativecommons.org/ns#"
   xmlns:rdf="http://www.w3.org/1999/02/22-rdf-syntax-ns#"
   xmlns:svg="http://www.w3.org/2000/svg"
   xmlns="http://www.w3.org/2000/svg"
   xmlns:sodipodi="http://sodipodi.sourceforge.net/DTD/sodipodi-0.dtd"
   xmlns:inkscape="http://www.inkscape.org/namespaces/inkscape"
   sodipodi:docname="logo.svg"
   inkscape:version="1.0 (4035a4fb49, 2020-05-01)"
   id="svg8"
   version="1.1"
   viewBox="0 0 258.60388 258.60388"
   height="258.60388mm"
   width="258.60388mm">
  <defs
     id="defs2" />
  <sodipodi:namedview
     fit-margin-bottom="0"
     fit-margin-right="0"
     fit-margin-left="0"
     fit-margin-top="0"
     inkscape:snap-global="false"
     inkscape:snap-others="false"
     inkscape:snap-nodes="false"
     inkscape:object-paths="true"
     inkscape:snap-object-midpoints="true"
     inkscape:window-maximized="1"
     inkscape:window-y="-8"
     inkscape:window-x="68"
     inkscape:window-height="1057"
     inkscape:window-width="1844"
     showgrid="false"
     inkscape:document-rotation="0"
     inkscape:current-layer="g949"
     inkscape:document-units="mm"
     inkscape:cy="354.35777"
     inkscape:cx="485.79111"
     inkscape:zoom="0.31362202"
     inkscape:pageshadow="2"
     inkscape:pageopacity="0.0"
     borderopacity="1.0"
     bordercolor="#666666"
     pagecolor="#ffffff"
     id="base" />
  <metadata
     id="metadata5">
    <rdf:RDF>
      <cc:Work
         rdf:about="">
        <dc:format>image/svg+xml</dc:format>
        <dc:type
           rdf:resource="http://purl.org/dc/dcmitype/StillImage" />
        <dc:title></dc:title>
      </cc:Work>
    </rdf:RDF>
  </metadata>
  <g
     transform="translate(47.168177,-17.355157)"
     id="layer1"
     inkscape:groupmode="layer"
     inkscape:label="Layer 1">
    <g
       transform="translate(-16.106627,8.3515864)"
       id="g949">
      <rect
         y="9.0035706"
         x="-31.06155"
         height="258.60388"
         width="258.60388"
         id="rect953"
         style="fill:#151515;fill-opacity:1;fill-rule:evenodd;stroke:none;stroke-width:2.05501;stroke-linecap:square;stroke-linejoin:bevel;stroke-miterlimit:4;stroke-dasharray:none;paint-order:stroke fill markers" />
      <g
         transform="matrix(1.1083866,0,0,1.1083866,-436.8627,86.659751)"
         id="g973">
        <g
           style="fill:#d22731;fill-opacity:1"
           transform="matrix(1.9350142,0.32720478,-0.32720478,1.9350142,389.8149,-22.866849)"
           id="Layer_2"
           data-name="Layer 2">
          <g
             style="fill:#d22731;fill-opacity:1"
             id="Layer_1-2"
             data-name="Layer 1">
            <path
               style="fill:#d22731;fill-opacity:1"
               class="cls-1"
               d="m 34.68,43.52 a 11.55,11.55 0 0 0 1.51,4.71 10.69,10.69 0 0 0 4.51,4.19 15.25,15.25 0 0 0 6.92,1.46 21.08,21.08 0 0 0 11.07,-3.06 c 0.2,-0.11 0.37,-0.26 0.56,-0.38 a 17.86,17.86 0 0 1 -2.38,-7.86 18.05,18.05 0 0 1 -4.26,6.32 6.74,6.74 0 0 1 -4.51,1.91 4.29,4.29 0 0 1 -3.44,-1.54 7.28,7.28 0 0 1 -1.28,-4.7 30.94,30.94 0 0 1 2.17,-11.1 c 0.35,-0.92 0.72,-1.78 1.11,-2.59 -2.42,2.36 -6.25,6.3 -12,12.64 M 49.36,19.16 54.53,0 39.86,0.56 l -1,3.33 h 1.46 A 4.07,4.07 0 0 1 42.75,4.44 1.81,1.81 0 0 1 43.51,6 5,5 0 0 1 43.33,7.31 l -6.1,22.79 c 3.68,-4.13 7.88,-8.25 12.15,-10.94 M 10.92,36.84 q 1.35,-8 4.67,-12.52 2.27,-3.13 4.88,-3.14 a 2.74,2.74 0 0 1 2.18,1 4.39,4.39 0 0 1 0.86,2.87 10.77,10.77 0 0 1 -3.78,8 Q 17,35.68 10.92,36.84 m 78.4,11.49 a 1.22,1.22 0 0 1 -0.23,-0.81 17.3,17.3 0 0 1 0.7,-3.29 l 7,-25.28 -9.06,0.68 -1.92,5.12 A 8.87,8.87 0 0 0 83,20.05 8.22,8.22 0 0 0 77.88,18.56 15.74,15.74 0 0 0 69.64,21 14.91,14.91 0 0 1 72,29.28 c 0.07,-0.13 0.12,-0.26 0.19,-0.39 q 3.44,-6 7.74,-6.05 a 3.42,3.42 0 0 1 2.91,1.4 c 0.7,0.93 1,2.54 1,4.82 A 31.58,31.58 0 0 1 81.9,39.93 Q 80,45 77.53,47.22 a 7.21,7.21 0 0 1 -4.61,2.17 h -0.3 v 0 a 3,3 0 0 1 -2,-0.7 3.65,3.65 0 0 1 -0.82,-0.8 5,5 0 0 1 -0.63,-1.41 0.19,0.19 0 0 1 0,-0.08 6.55,6.55 0 0 1 -0.19,-0.67 c -0.47,-2 -0.52,-5 0.42,-9.59 1.38,-6.74 0.37,-11.11 -1.54,-13.89 v 0 c -0.25,-0.35 -0.47,-0.72 -0.75,-1 A 10.73,10.73 0 0 0 65.65,19.91 L 65.58,19.86 A 9.4,9.4 0 0 0 64,18.92 L 63.84,18.85 A 10.44,10.44 0 0 0 60,18 c 0,0 0,0 0,0 0,0 -0.11,0 -0.17,0 -0.06,0 -0.35,-0.05 -0.55,-0.05 -0.2,0 -0.33,0.05 -0.5,0.05 a 11.18,11.18 0 0 0 -2.06,0.22 l -0.52,0.1 A 22,22 0 0 0 48.82,21.91 105.23,105.23 0 0 0 36.19,34 v 0.06 c -3.29,3.86 -6.05,7.48 -7.86,9.6 v 0 0 a 25.46,25.46 0 0 1 -6.07,4.89 h -0.1 a 11.33,11.33 0 0 1 -5,1.21 6.29,6.29 0 0 1 -4.91,-2 A 8.22,8.22 0 0 1 10.36,42 c 0,-0.59 0.05,-1.33 0.14,-2.23 q 9.22,-1.62 13.76,-3.69 a 16.14,16.14 0 0 0 6.54,-4.88 9.61,9.61 0 0 0 2,-5.6 7.09,7.09 0 0 0 -2.51,-5.56 q -2.51,-2.19 -7.07,-2.19 a 23.38,23.38 0 0 0 -11.61,3 A 22.4,22.4 0 0 0 3.1,29.07 21,21 0 0 0 0,40 q 0,6.39 3.73,10.13 3.73,3.74 10.27,3.76 a 19.65,19.65 0 0 0 2.56,-0.18 l -0.12,0.09 0.88,-0.21 A 18.82,18.82 0 0 0 22.54,52 c 0.19,-0.08 0.37,-0.21 0.56,-0.31 a 12.58,12.58 0 0 0 1.28,-0.72 l 0.31,-0.19 c 0.49,-0.32 1,-0.68 1.49,-1.07 l 0.63,-0.5 c 0.15,-0.12 0.3,-0.26 0.45,-0.39 a 36.37,36.37 0 0 0 2.81,-2.68 c 0.18,-0.19 0.34,-0.33 0.53,-0.53 1.27,-1.5 2.44,-2.85 3.58,-4.15 0.11,-0.13 0.19,-0.25 0.31,-0.38 4.23,-4.89 11,-13 16.59,-16.28 l 0.25,-0.2 a 12.6,12.6 0 0 1 1.7,-1 5.08,5.08 0 0 1 1.97,-0.48 4.63,4.63 0 0 1 0.55,0.06 v 0 a 3.22,3.22 0 0 1 2.62,1.4 c 0.06,0.07 0.13,0.12 0.18,0.19 a 7.52,7.52 0 0 1 1.19,4.12 27.23,27.23 0 0 1 -0.44,6.93 c -1,6.63 0.1,10.81 1.9,13.46 h 0.07 a 11.46,11.46 0 0 0 0.87,1.2 10.08,10.08 0 0 0 1.5,1.36 l 0.33,0.26 a 10.64,10.64 0 0 0 1.3,0.75 c 0.31,0.14 0.6,0.28 0.88,0.38 a 8.64,8.64 0 0 0 1.31,0.41 c 0.22,0.06 0.41,0.1 0.58,0.13 a 11.63,11.63 0 0 0 2.07,0.19 11,11 0 0 0 5.34,-1.36 17.63,17.63 0 0 0 5.2,-4.75 7.67,7.67 0 0 0 1.63,4.58 5,5 0 0 0 3.92,1.45 q 7.35,0 13.55,-12.05 L 96.88,40.38 Q 92.65,48.61 90,48.62 a 0.83,0.83 0 0 1 -0.69,-0.29"
               id="path8" />
          </g>
        </g>
        <g
           id="g929"
           transform="translate(372.88783,-55.680083)">
          <path
             style="fill:#0066ff;stroke:#000000;stroke-width:1;stroke-linecap:butt;stroke-linejoin:miter;stroke-miterlimit:4;stroke-dasharray:none;stroke-opacity:1"
             d="m 59.305211,154.04277 c 15.276439,-32.81981 14.231734,-46.35091 59.305209,-75.136685 41.47617,3.038237 64.66745,8.773892 97.18771,32.156545 -20.63614,31.39954 -17.00869,47.09113 -57.70409,68.52481 -35.36952,-6.76745 -59.540597,-11.66624 -98.788829,-25.54467 z"
             id="path845"
             sodipodi:nodetypes="ccccc" />
          <path
             sodipodi:nodetypes="ccccc"
             id="path847"
             d="m 59.305211,154.04277 c 15.276439,-32.81981 14.231734,-46.35091 59.305209,-75.136685 0,0 -11.86102,-3.793145 -21.787338,-2.065611 -24.643419,26.443166 -42.539353,47.890096 -51.605724,74.299126 9.765092,2.09075 0.917189,1.85554 14.087853,2.90317 z"
             style="fill:#ddff55;stroke:#000000;stroke-width:1;stroke-linecap:butt;stroke-linejoin:miter;stroke-miterlimit:4;stroke-dasharray:none;stroke-opacity:1" />
          <path
             inkscape:transform-center-y="-0.64908604"
             inkscape:transform-center-x="-0.00070897402"
             d="m 102.46588,132.12113 -3.998804,-2.10401 -4.000219,2.10131 0.76534,-4.45326 -3.234608,-3.15509 4.471808,-0.64825 2.001121,-4.05127 1.998392,4.05262 4.47137,0.65126 -3.23674,3.15291 z"
             inkscape:randomized="0"
             inkscape:rounded="0"
             inkscape:flatsided="false"
             sodipodi:arg2="1.5711336"
             sodipodi:arg1="0.94281504"
             sodipodi:r2="3.4021869"
             sodipodi:r1="6.8043737"
             sodipodi:cy="126.61493"
             sodipodi:cx="98.468224"
             sodipodi:sides="5"
             id="path855"
             style="fill:#ddff55;fill-opacity:1;fill-rule:evenodd;stroke:#000000;stroke-width:1;stroke-linecap:square;stroke-linejoin:bevel;stroke-miterlimit:4;stroke-dasharray:none;paint-order:stroke fill markers"
             sodipodi:type="star" />
          <path
             transform="rotate(27.263392,135.58973,145.23065)"
             inkscape:transform-center-y="0.33917106"
             inkscape:transform-center-x="-0.31867993"
             d="m 135.58971,145.23066 -3.9988,-2.10402 -4.00022,2.10132 0.76534,-4.45326 -3.23461,-3.15509 4.47181,-0.64825 2.00112,-4.05128 1.99839,4.05262 4.47137,0.65127 -3.23674,3.15291 z"
             inkscape:randomized="0"
             inkscape:rounded="0"
             inkscape:flatsided="false"
             sodipodi:arg2="1.5711336"
             sodipodi:arg1="0.94281504"
             sodipodi:r2="3.4021869"
             sodipodi:r1="6.8043737"
             sodipodi:cy="139.72446"
             sodipodi:cx="131.59206"
             sodipodi:sides="5"
             id="path857"
             style="fill:#ddff55;fill-opacity:1;fill-rule:evenodd;stroke:#000000;stroke-width:1;stroke-linecap:square;stroke-linejoin:bevel;stroke-miterlimit:4;stroke-dasharray:none;paint-order:stroke fill markers"
             sodipodi:type="star" />
          <path
             transform="rotate(-33.232145,64.581116,138.54599)"
             inkscape:transform-center-y="0.55174898"
             inkscape:transform-center-x="0.1022484"
             d="m 135.58971,145.23066 -3.9988,-2.10402 -4.00022,2.10132 0.76534,-4.45326 -3.23461,-3.15509 4.47181,-0.64825 2.00112,-4.05128 1.99839,4.05262 4.47137,0.65127 -3.23674,3.15291 z"
             inkscape:randomized="0"
             inkscape:rounded="0"
             inkscape:flatsided="false"
             sodipodi:arg2="1.5711336"
             sodipodi:arg1="0.94281504"
             sodipodi:r2="3.4021869"
             sodipodi:r1="6.8043737"
             sodipodi:cy="139.72446"
             sodipodi:cx="131.59206"
             sodipodi:sides="5"
             id="path859"
             style="fill:#ddff55;fill-opacity:1;fill-rule:evenodd;stroke:#000000;stroke-width:1;stroke-linecap:square;stroke-linejoin:bevel;stroke-miterlimit:4;stroke-dasharray:none;paint-order:stroke fill markers"
             sodipodi:type="star" />
          <path
             transform="rotate(5.6023658,167.63046,558.13359)"
             inkscape:transform-center-y="-4.7234925"
             inkscape:transform-center-x="-4.4114113"
             d="m 135.58971,145.23066 -3.9988,-2.10402 -4.00022,2.10132 0.76534,-4.45326 -3.23461,-3.15509 4.47181,-0.64825 2.00112,-4.05128 1.99839,4.05262 4.47137,0.65127 -3.23674,3.15291 z"
             inkscape:randomized="0"
             inkscape:rounded="0"
             inkscape:flatsided="false"
             sodipodi:arg2="1.5711336"
             sodipodi:arg1="0.94281504"
             sodipodi:r2="3.4021869"
             sodipodi:r1="6.8043737"
             sodipodi:cy="139.72446"
             sodipodi:cx="131.59206"
             sodipodi:sides="5"
             id="path861"
             style="fill:#ddff55;fill-opacity:1;fill-rule:evenodd;stroke:#000000;stroke-width:1;stroke-linecap:square;stroke-linejoin:bevel;stroke-miterlimit:4;stroke-dasharray:none;paint-order:stroke fill markers"
             sodipodi:type="star" />
          <path
             transform="rotate(37.152584,203.48062,170.35446)"
             inkscape:transform-center-y="-0.83196267"
             inkscape:transform-center-x="-5.7764891"
             d="m 135.58971,145.23066 -3.9988,-2.10402 -4.00022,2.10132 0.76534,-4.45326 -3.23461,-3.15509 4.47181,-0.64825 2.00112,-4.05128 1.99839,4.05262 4.47137,0.65127 -3.23674,3.15291 z"
             inkscape:randomized="0"
             inkscape:rounded="0"
             inkscape:flatsided="false"
             sodipodi:arg2="1.5711336"
             sodipodi:arg1="0.94281504"
             sodipodi:r2="3.4021869"
             sodipodi:r1="6.8043737"
             sodipodi:cy="139.72446"
             sodipodi:cx="131.59206"
             sodipodi:sides="5"
             id="path863"
             style="fill:#ddff55;fill-opacity:1;fill-rule:evenodd;stroke:#000000;stroke-width:1;stroke-linecap:square;stroke-linejoin:bevel;stroke-miterlimit:4;stroke-dasharray:none;paint-order:stroke fill markers"
             sodipodi:type="star" />
          <path
             transform="rotate(66.079081,186.09305,177.37967)"
             inkscape:transform-center-y="1.1131648"
             inkscape:transform-center-x="-5.5741004"
             d="m 135.58971,145.23066 -3.9988,-2.10402 -4.00022,2.10132 0.76534,-4.45326 -3.23461,-3.15509 4.47181,-0.64825 2.00112,-4.05128 1.99839,4.05262 4.47137,0.65127 -3.23674,3.15291 z"
             inkscape:randomized="0"
             inkscape:rounded="0"
             inkscape:flatsided="false"
             sodipodi:arg2="1.5711336"
             sodipodi:arg1="0.94281504"
             sodipodi:r2="3.4021869"
             sodipodi:r1="6.8043737"
             sodipodi:cy="139.72446"
             sodipodi:cx="131.59206"
             sodipodi:sides="5"
             id="path865"
             style="fill:#ddff55;fill-opacity:1;fill-rule:evenodd;stroke:#000000;stroke-width:1;stroke-linecap:square;stroke-linejoin:bevel;stroke-miterlimit:4;stroke-dasharray:none;paint-order:stroke fill markers"
             sodipodi:type="star" />
          <path
             transform="rotate(66.079081,156.98382,138.81441)"
             inkscape:transform-center-y="1.1131648"
             inkscape:transform-center-x="-5.5741004"
             d="m 135.58971,145.23066 -3.9988,-2.10402 -4.00022,2.10132 0.76534,-4.45326 -3.23461,-3.15509 4.47181,-0.64825 2.00112,-4.05128 1.99839,4.05262 4.47137,0.65127 -3.23674,3.15291 z"
             inkscape:randomized="0"
             inkscape:rounded="0"
             inkscape:flatsided="false"
             sodipodi:arg2="1.5711336"
             sodipodi:arg1="0.94281504"
             sodipodi:r2="3.4021869"
             sodipodi:r1="6.8043737"
             sodipodi:cy="139.72446"
             sodipodi:cx="131.59206"
             sodipodi:sides="5"
             id="path867"
             style="fill:#ddff55;fill-opacity:1;fill-rule:evenodd;stroke:#000000;stroke-width:1;stroke-linecap:square;stroke-linejoin:bevel;stroke-miterlimit:4;stroke-dasharray:none;paint-order:stroke fill markers"
             sodipodi:type="star" />
          <path
             transform="rotate(6.3654428,49.798928,-35.297707)"
             inkscape:transform-center-y="-4.6397111"
             inkscape:transform-center-x="-4.4957891"
             d="m 135.58971,145.23066 -3.9988,-2.10402 -4.00022,2.10132 0.76534,-4.45326 -3.23461,-3.15509 4.47181,-0.64825 2.00112,-4.05128 1.99839,4.05262 4.47137,0.65127 -3.23674,3.15291 z"
             inkscape:randomized="0"
             inkscape:rounded="0"
             inkscape:flatsided="false"
             sodipodi:arg2="1.5711336"
             sodipodi:arg1="0.94281504"
             sodipodi:r2="3.4021869"
             sodipodi:r1="6.8043737"
             sodipodi:cy="139.72446"
             sodipodi:cx="131.59206"
             sodipodi:sides="5"
             id="path869"
             style="fill:#ddff55;fill-opacity:1;fill-rule:evenodd;stroke:#000000;stroke-width:1;stroke-linecap:square;stroke-linejoin:bevel;stroke-miterlimit:4;stroke-dasharray:none;paint-order:stroke fill markers"
             sodipodi:type="star" />
          <path
             id="path888"
             style="fill:#ddff55;fill-opacity:1;fill-rule:evenodd;stroke:#000000;stroke-width:3.77953;stroke-linecap:square;stroke-linejoin:bevel;stroke-miterlimit:4;stroke-dasharray:none;paint-order:stroke fill markers"
             inkscape:transform-center-x="-5.4373718"
             inkscape:transform-center-y="0.56033091"
             d="m 540.246,667.46891 -13.39616,-7.74516 15.77793,-6.5356 3.56087,-16.70263 11.09138,12.98612 16.98554,-1.77482 -8.92309,14.56146 4.9479,11.1314"
             transform="scale(0.26458333)" />
          <path
             id="path892"
             style="fill:#ddff55;fill-opacity:1;fill-rule:evenodd;stroke:#000000;stroke-width:3.77953;stroke-linecap:square;stroke-linejoin:bevel;stroke-miterlimit:4;stroke-dasharray:none;paint-order:stroke fill markers"
             inkscape:transform-center-x="-2.5850191"
             inkscape:transform-center-y="5.7680802"
             d="m 256.70104,593.33127 2.01421,-1.62261 -1.28608,-17.02949 14.29908,9.33775 15.79859,-6.48554 -4.46208,16.48477 9.474,11.1639"
             transform="scale(0.26458333)" />
          <path
             id="path880"
             style="fill:#ddff55;fill-opacity:1;fill-rule:evenodd;stroke:#000000;stroke-width:3.77953;stroke-linecap:square;stroke-linejoin:bevel;stroke-miterlimit:4;stroke-dasharray:none;paint-order:stroke fill markers"
             inkscape:transform-center-x="-0.31647155"
             inkscape:transform-center-y="5.6365318"
             d="m 531.61866,306.38393 4.97518,14.53881 -16.18847,-5.43976 -13.65865,10.25179 0.17102,-17.07714 -8.58631,-6.0366"
             transform="scale(0.26458333)" />
        </g>
        <path
           d="m 410.84292,-28.752977 a 18.721688,18.721688 0 0 0 -25.0825,8.257848 18.721688,18.721688 0 0 0 8.21359,25.1704955 18.721688,18.721688 0 0 0 5.96898,1.860576 18.721688,18.721688 0 0 1 -3.19009,-21.4476205 18.721688,18.721688 0 0 1 19.20098,-10.073998 18.721688,18.721688 0 0 0 -5.02315,-3.722697 18.721688,18.721688 0 0 0 -0.0878,-0.0446 z"
           style="fill:#ddff55;fill-opacity:1;fill-rule:evenodd;stroke:#000000;stroke-width:1;stroke-linecap:square;stroke-linejoin:bevel;stroke-miterlimit:4;stroke-dasharray:none;paint-order:stroke fill markers"
           id="path895" />
      </g>
    </g>
  </g>
</svg>
